<svg xmlns="http://www.w3.org/2000/svg" viewBox="0 0 40 40" fill="none">
  <rect width="40" height="40" rx="8" fill="#FD3A5C"/>
  <path d="M20 8C18.3 8 17 9.3 17 11V19.5C17 20.3 16.3 21 15.5 21C14.7 21 14 20.3 14 19.5V15C14 13.3 12.7 12 11 12C9.3 12 8 13.3 8 15V24C8 30.6 13.4 36 20 36C26.6 36 32 30.6 32 24V15C32 13.3 30.7 12 29 12C27.3 12 26 13.3 26 15V19.5C26 20.3 25.3 21 24.5 21C23.7 21 23 20.3 23 19.5V11C23 9.3 21.7 8 20 8Z" fill="white"/>
  <ellipse cx="20" cy="27" rx="4" ry="4" fill="#FD3A5C"/>
</svg>
